<svg width="30" height="33" viewBox="0 0 30 33" fill="none" xmlns="http://www.w3.org/2000/svg">
<mask id="mask0_1_16014" style="mask-type:alpha" maskUnits="userSpaceOnUse" x="0" y="0" width="30" height="33">
<path d="M12.0589 0.946147C13.8053 -0.0621262 15.9569 -0.0621275 17.7033 0.946145L26.94 6.27895C28.6864 7.28722 29.7622 9.15059 29.7622 11.1671V21.8327C29.7622 23.8493 28.6864 25.7127 26.94 26.7209L17.7033 32.0537C15.9569 33.062 13.8053 33.062 12.0589 32.0537L2.8222 26.7209C1.07582 25.7127 0 23.8493 0 21.8327V11.1671C0 9.15059 1.07582 7.28722 2.8222 6.27895L12.0589 0.946147Z" fill="#C4C4C4"/>
</mask>
<g mask="url(#mask0_1_16014)">
<path d="M14.8768 -0.964111L31.1887 8.45352L22.9338 12.8983L19.5241 11.0384L16.4243 11.3484L8.67486 8.55861L6.815 11.0384L5.88507 12.2783L4.02521 11.0384L-1.43499 8.45353L14.8768 -0.964111Z" fill="url(#paint0_linear_1_16014)"/>
<path d="M-0.12854 8.58702L6.19935 11.6556L9.91908 20.6449L9.91908 20.9549L11.159 22.5048L16.7386 26.8445L14.8806 34.5836L-0.12854 25.9181L-0.12854 8.58702Z" fill="url(#paint1_linear_1_16014)"/>
<path d="M19.8341 20.9543L23.8638 12.2749L29.886 8.58868L29.886 25.9197L14.8769 34.5852L14.5645 26.8438L19.8341 20.9543Z" fill="url(#paint2_linear_1_16014)"/>
<path d="M14.8762 6.08276C12.3114 6.08276 9.97404 7.05624 8.21317 8.65384L9.64274 20.9616C10.0337 21.142 12.2758 21.8916 12.7064 21.8916H15.8062C16.354 21.8916 20.1459 20.7238 20.1459 21.2716L19.8359 19.9696C19.8359 20.5175 19.3918 20.9616 18.844 20.9616H10.9085C10.3607 20.9616 9.91661 20.5175 9.91661 19.9696V15.1676C9.91661 14.737 9.82317 14.3116 9.64274 13.9206L8.21317 8.65384C6.61557 10.4146 4.95697 13.4372 4.95697 16.002C4.95697 21.4804 9.39793 25.9213 14.8762 25.9213C20.3546 25.9213 24.7955 21.4804 24.7955 16.002C24.7955 10.5237 20.3546 6.08276 14.8762 6.08276Z" fill="url(#paint3_linear_1_16014)"/>
<path d="M15.7981 -7.82956C16.0171 -7.91407 16.2514 -7.94724 16.4834 -7.92656C16.7153 -7.90589 16.9388 -7.8319 17.1369 -7.71022C17.3349 -7.58853 17.5024 -7.42234 17.6266 -7.22422C17.7508 -7.0261 17.8285 -6.80125 17.8538 -6.5667C18.0339 -4.8768 17.6544 -3.16574 16.7748 -1.70209C15.8952 -0.238444 14.5654 0.894948 12.994 1.5202L11.8819 -1.35519C12.8205 -1.72903 13.6156 -2.40503 14.1434 -3.27802C14.6712 -4.15101 14.9021 -5.17206 14.8003 -6.18233C14.7632 -6.52731 14.8409 -6.87669 15.0212 -7.17509C15.2015 -7.4735 15.474 -7.70385 15.7955 -7.82964L15.7981 -7.82956Z" fill="#9C5AFF"/>
<path d="M15.7854 -7.82478C15.4055 -7.67344 15.0982 -7.37626 14.9311 -6.99858C14.764 -6.62091 14.7507 -6.19365 14.8942 -5.81074L18.1442 2.8561C18.2879 3.23893 18.5766 3.54598 18.9467 3.70976C19.3169 3.87354 19.7382 3.88064 20.1182 3.72949C20.3063 3.65466 20.4787 3.54319 20.6253 3.40145C20.7719 3.25972 20.89 3.09049 20.9728 2.90345C21.0555 2.71641 21.1013 2.51522 21.1076 2.31138C21.1139 2.10753 21.0805 1.90503 21.0093 1.71545L17.7593 -6.95139C17.6882 -7.14103 17.5808 -7.31407 17.4432 -7.46061C17.3055 -7.60715 17.1403 -7.72432 16.957 -7.80543C16.7737 -7.88654 16.5758 -7.93 16.3748 -7.93332C16.1738 -7.93664 15.9735 -7.89976 15.7854 -7.82478Z" fill="#9C5AFF"/>
<path d="M20.1038 3.73163C19.8849 3.81619 19.6507 3.84942 19.4188 3.8288C19.1868 3.80818 18.9634 3.73426 18.7653 3.61263C18.5673 3.491 18.3998 3.32486 18.2756 3.1268C18.1514 2.92873 18.0737 2.70393 18.0484 2.46943C17.8685 0.779495 18.2481 -0.931533 19.1276 -2.39524C20.0071 -3.85895 21.3367 -4.99251 22.908 -5.61812L24.0201 -2.74163C23.0815 -2.36778 22.2864 -1.69179 21.7586 -0.818798C21.2308 0.0541939 20.9999 1.07524 21.1017 2.08551C21.1383 2.43062 21.06 2.77994 20.8792 3.07812C20.6985 3.37631 20.4256 3.60629 20.1038 3.73163Z" fill="#9C5AFF"/>
</g>
<defs>
<linearGradient id="paint0_linear_1_16014" x1="14.5644" y1="0.499199" x2="14.2819" y2="11.8215" gradientUnits="userSpaceOnUse">
<stop stop-color="#4E00D3"/>
<stop offset="1" stop-color="#7A36F0"/>
</linearGradient>
<linearGradient id="paint1_linear_1_16014" x1="14.8787" y1="23.4347" x2="5.90309" y2="12.6731" gradientUnits="userSpaceOnUse">
<stop stop-color="#5508D8"/>
<stop offset="1" stop-color="#7935EF"/>
</linearGradient>
<linearGradient id="paint2_linear_1_16014" x1="14.8744" y1="24.674" x2="23.4474" y2="13.2149" gradientUnits="userSpaceOnUse">
<stop stop-color="#5205D6"/>
<stop offset="1" stop-color="#7A35F0"/>
</linearGradient>
<linearGradient id="paint3_linear_1_16014" x1="14.8762" y1="6.08276" x2="14.8762" y2="25.9213" gradientUnits="userSpaceOnUse">
<stop stop-color="#7935EF"/>
<stop offset="1" stop-color="#6117E0"/>
</linearGradient>
</defs>
</svg>
